HIERARCHY
ROOT Hips
{
	OFFSET -0.001795 -0.223333 0.028219
	CHANNELS 6 Xposition Yposition Zposition Zrotation Yrotation Xrotation 
	JOINT LeftUpLeg
	{
		OFFSET 0.069520 -0.091406 -0.006815
		CHANNELS 3 Zrotation Yrotation Xrotation
		JOINT LeftLeg
		{
			OFFSET 0.034277 -0.375199 -0.004496
			CHANNELS 3 Zrotation Yrotation Xrotation
			JOINT LeftFoot
			{
				OFFSET -0.013596 -0.397961 -0.043693
				CHANNELS 3 Zrotation Yrotation Xrotation
				JOINT LeftToe
				{
					OFFSET 0.026358 -0.055791 0.119288
					CHANNELS 3 Zrotation Yrotation Xrotation
					End Site
					{
						OFFSET 0.000000 0.000000 0.000000
					}
				}
			}
		}
	}
	JOINT RightUpLeg
	{
		OFFSET -0.067670 -0.090522 -0.004320
		CHANNELS 3 Zrotation Yrotation Xrotation
		JOINT RightLeg
		{
			OFFSET -0.038290 -0.382569 -0.008850
			CHANNELS 3 Zrotation Yrotation Xrotation
			JOINT RightFoot
			{
				OFFSET 0.015774 -0.398415 -0.042312
				CHANNELS 3 Zrotation Yrotation Xrotation
				JOINT RightToe
				{
					OFFSET -0.025372 -0.048144 0.123348
					CHANNELS 3 Zrotation Yrotation Xrotation
					End Site
					{
						OFFSET 0.000000 0.000000 0.000000
					}
				}
			}
		}
	}
	JOINT Spine
	{
		OFFSET -0.002533 0.108963 -0.026696
		CHANNELS 3 Zrotation Yrotation Xrotation
		JOINT Spine1
		{
			OFFSET 0.005487 0.135180 0.001092
			CHANNELS 3 Zrotation Yrotation Xrotation
			JOINT Spine2
			{
				OFFSET 0.001457 0.052922 0.025425
				CHANNELS 3 Zrotation Yrotation Xrotation
				JOINT Neck
				{
					OFFSET -0.002778 0.213870 -0.042857
					CHANNELS 3 Zrotation Yrotation Xrotation
					JOINT Head
					{
						OFFSET 0.005152 0.064970 0.051349
						CHANNELS 3 Zrotation Yrotation Xrotation
						End Site
						{
							OFFSET 0.000000 0.000000 0.000000
						}
					}
				}
				JOINT LeftShoulder
				{
					OFFSET 0.078845 0.121749 -0.034090
					CHANNELS 3 Zrotation Yrotation Xrotation
					JOINT LeftArm
					{
						OFFSET 0.090977 0.030469 -0.008868
						CHANNELS 3 Zrotation Yrotation Xrotation
						JOINT LeftForeArm
						{
							OFFSET 0.259612 -0.012772 -0.027456
							CHANNELS 3 Zrotation Yrotation Xrotation
							JOINT LeftHand
							{
								OFFSET 0.249234 0.008986 -0.001171
								CHANNELS 3 Zrotation Yrotation Xrotation
								End Site
								{
									OFFSET 0.000000 0.000000 0.000000
								}
							}
						}
					}
				}
				JOINT RightShoulder
				{
					OFFSET -0.081759 0.118833 -0.038615
					CHANNELS 3 Zrotation Yrotation Xrotation
					JOINT RightArm
					{
						OFFSET -0.096012 0.032551 -0.009143
						CHANNELS 3 Zrotation Yrotation Xrotation
						JOINT RightForeArm
						{
							OFFSET -0.253742 -0.013329 -0.021401
							CHANNELS 3 Zrotation Yrotation Xrotation
							JOINT RightHand
							{
								OFFSET -0.255298 0.007772 -0.005559
								CHANNELS 3 Zrotation Yrotation Xrotation
								End Site
								{
									OFFSET 0.000000 0.000000 0.000000
								}
							}
						}
					}
				}
			}
		}
	}
}
MOTION
Frames: 14
Frame Time: 0.050000
0.000000 0.922171 0.000000 -2.493792 -15.156285 -0.555566 14.317626 0.808171 -6.017397 -4.879562 1.272932 13.816728 24.799609 37.639970 22.610612 0.000000 0.000000 0.000000 -9.757601 0.841893 -10.769992 7.454001 -0.503122 13.730412 18.566396 7.995051 39.305073 0.000000 0.000000 0.000000 3.525745 -0.955587 21.808417 -5.806951 1.689229 -26.379296 -2.254264 6.780148 25.172254 12.714884 -5.524044 -29.133883 0.000000 0.000000 0.000000 -24.858785 -13.688490 7.650192 -38.917276 -13.689962 -2.611155 -8.818759 -37.542022 4.839029 0.000000 0.000000 0.000000 34.474153 1.959970 -2.256061 45.781084 7.494921 -3.462593 20.424306 40.199177 8.992100 0.000000 0.000000 0.000000 
-0.001311 0.920911 0.000835 -2.489942 -14.653107 -0.358239 15.203223 0.894752 -6.314469 -6.162664 1.610707 13.843203 24.390433 37.443767 21.754439 0.000000 0.000000 0.000000 -9.396270 0.846865 -10.980670 6.944082 -0.422390 14.084241 18.282885 8.136859 38.545930 0.000000 0.000000 0.000000 3.549778 -0.987618 22.225518 -5.976654 1.739956 -26.023476 -2.523697 6.442442 24.664717 12.969603 -5.643079 -29.035426 0.000000 0.000000 0.000000 -26.653354 -13.131045 7.486282 -38.789847 -13.534466 -2.651259 -6.784908 -35.768801 3.933913 0.000000 0.000000 0.000000 33.443415 2.087677 -2.063368 46.841375 7.152530 -3.610381 19.576016 38.024648 8.131329 0.000000 0.000000 0.000000 
-0.002235 0.917979 0.001198 -2.256626 -13.328000 0.094589 15.089640 0.871184 -7.746706 -6.120566 1.604731 14.802591 23.658523 36.989537 20.428786 0.000000 0.000000 0.000000 -9.577033 0.861362 -12.143410 6.947963 -0.441028 15.732796 17.500158 7.988933 37.549205 0.000000 0.000000 0.000000 3.906546 -1.117161 21.940238 -5.880145 1.738717 -25.377865 -2.929498 5.881779 24.379734 13.272459 -5.794307 -29.085816 0.000000 0.000000 0.000000 -26.546373 -13.841356 7.831341 -38.581071 -13.268420 -2.678928 -6.573753 -35.878096 3.847441 0.000000 0.000000 0.000000 33.874169 2.388208 -1.767068 46.924871 7.543178 -3.497268 16.733575 35.887579 6.729491 0.000000 0.000000 0.000000 
-0.003106 0.917466 0.001327 -2.173682 -12.965195 0.128416 15.574171 0.940260 -8.317984 -6.906088 1.864460 15.532914 23.348644 36.711169 20.071124 0.000000 0.000000 0.000000 -9.724730 0.867279 -12.680921 7.172661 -0.483045 16.734170 17.300426 7.761842 37.671892 0.000000 0.000000 0.000000 4.321090 -1.231486 22.765917 -6.732367 1.955555 -25.877371 -2.965629 6.246106 24.566532 13.657630 -5.743694 -29.915500 0.000000 0.000000 0.000000 -26.943600 -14.710819 8.176274 -38.163203 -12.750399 -2.729738 -6.216681 -37.433613 3.860064 0.000000 0.000000 0.000000 34.492460 2.423144 -1.495779 46.541075 7.917268 -3.431676 16.230828 34.134071 6.251369 0.000000 0.000000 0.000000 
-0.003770 0.915856 0.001289 -1.969060 -12.209313 0.027481 15.677961 0.974819 -9.305413 -7.215660 2.028791 16.980742 22.826228 36.268155 19.376104 0.000000 0.000000 0.000000 -9.923765 0.856418 -13.297933 7.254779 -0.507823 18.230462 16.898793 7.536206 37.438724 0.000000 0.000000 0.000000 4.047829 -1.217940 23.063384 -6.681083 1.962530 -25.370226 -2.980039 6.772888 24.422515 13.894904 -5.553080 -30.749415 0.000000 0.000000 0.000000 -26.296899 -14.583752 7.642538 -38.889097 -12.604405 -2.680919 -6.477540 -39.176350 4.126201 0.000000 0.000000 0.000000 35.105894 2.845663 -0.746008 45.409049 8.163020 -3.418578 16.376779 32.977092 6.097109 0.000000 0.000000 0.000000 
-0.004337 0.915411 0.000960 -1.793895 -11.570029 0.196721 15.886867 0.999791 -10.009975 -7.735531 2.183546 17.442312 22.432036 35.894944 18.967206 0.000000 0.000000 0.000000 -10.098022 0.848899 -13.857532 7.590702 -0.604065 19.318263 15.311194 6.415024 35.851290 0.000000 0.000000 0.000000 3.841902 -1.227001 23.807328 -6.747185 1.978176 -26.171914 -2.630706 7.428190 24.993133 14.020922 -5.306902 -31.669707 0.000000 0.000000 0.000000 -26.478023 -15.469327 7.840893 -38.879624 -12.089041 -2.756035 -6.814295 -40.133748 4.287759 0.000000 0.000000 0.000000 34.802433 3.286371 0.149080 45.011055 8.620748 -3.452223 16.100793 32.675881 6.019171 0.000000 0.000000 0.000000 
-0.004868 0.914526 0.000382 -1.856196 -11.121095 0.541163 16.082323 1.044099 -10.828183 -7.822973 2.225477 17.959435 22.196171 35.684758 18.650616 0.000000 0.000000 0.000000 -9.936828 0.878262 -14.634324 7.913752 -0.691533 20.540252 13.328855 4.916732 33.748791 0.000000 0.000000 0.000000 3.592259 -1.213432 24.225600 -6.669791 1.966815 -25.713479 -2.617774 7.481984 24.472327 14.507858 -5.516463 -31.533921 0.000000 0.000000 0.000000 -26.346154 -15.143004 7.461751 -38.863892 -11.941740 -2.722412 -6.910531 -40.632548 4.353638 0.000000 0.000000 0.000000 35.280361 3.907628 0.743674 44.100554 8.963227 -3.296697 15.818355 33.033969 6.002155 0.000000 0.000000 0.000000 
-0.005377 0.913532 -0.000256 -1.916210 -10.945427 0.740529 16.501758 1.126789 -11.389438 -8.295869 2.402021 18.432434 22.074608 35.597524 18.401469 0.000000 0.000000 0.000000 -9.407427 0.942148 -15.388766 8.038835 -0.709402 22.109348 10.009391 1.879958 30.511860 0.000000 0.000000 0.000000 3.184840 -1.159044 25.361012 -6.210980 1.848462 -26.373422 -2.397740 7.669231 24.955327 14.213891 -5.438495 -31.068937 0.000000 0.000000 0.000000 -26.474917 -15.454772 7.572734 -38.499831 -11.563477 -2.823769 -6.850371 -41.462593 4.404150 0.000000 0.000000 0.000000 35.038121 4.068629 1.042648 43.263412 9.524051 -3.156981 16.436668 33.996358 6.395389 0.000000 0.000000 0.000000 
-0.005673 0.912824 -0.001076 -2.222522 -11.235968 0.946305 17.086673 1.243471 -11.580163 -8.665552 2.551558 18.578246 22.212026 35.759705 18.409781 0.000000 0.000000 0.000000 -8.867975 1.015978 -15.820581 8.270451 -0.736970 22.779099 8.198619 0.106912 28.547553 0.000000 0.000000 0.000000 2.914002 -1.095929 26.297393 -5.917185 1.773749 -26.419105 -2.191186 7.590847 24.815992 14.601574 -5.627600 -31.220364 0.000000 0.000000 0.000000 -26.360348 -15.126792 7.426171 -38.425453 -11.717351 -2.783846 -6.752498 -41.694865 4.412956 0.000000 0.000000 0.000000 34.889779 4.327503 1.130875 42.503104 10.318288 -2.812993 16.672397 34.734446 6.593668 0.000000 0.000000 0.000000 
-0.005530 0.912210 -0.002345 -2.379374 -11.343746 1.183035 17.485288 1.349776 -12.108426 -9.014246 2.714045 19.025482 22.265929 35.809815 18.418793 0.000000 0.000000 0.000000 -8.522246 1.087392 -16.500575 8.333777 -0.727347 23.793548 7.034921 -0.884590 26.883868 0.000000 0.000000 0.000000 2.383681 -0.971715 27.530162 -5.293657 1.625596 -27.274874 -2.113877 7.056624 25.230088 14.402553 -5.678016 -30.939357 0.000000 0.000000 0.000000 -26.342262 -14.816131 7.462280 -38.279929 -11.908961 -2.818818 -6.545995 -41.949297 4.418729 0.000000 0.000000 0.000000 34.747081 4.671389 1.146096 42.252705 10.998439 -2.542892 17.116838 35.472152 6.865933 0.000000 0.000000 0.000000 
-0.004761 0.911408 -0.004089 -2.630777 -11.329514 1.400043 17.935528 1.479225 -12.839233 -8.901867 2.780676 20.105753 21.361202 34.861432 17.672001 0.000000 0.000000 0.000000 -8.276419 1.143437 -17.056411 8.128093 -0.664345 24.141046 7.625794 -0.208036 27.389113 0.000000 0.000000 0.000000 2.106606 -0.906983 28.603436 -4.907584 1.543715 -27.612048 -2.161631 6.713399 25.283007 14.628815 -5.828651 -30.989238 0.000000 0.000000 0.000000 -26.120014 -14.849274 7.573048 -38.044515 -12.218612 -2.753342 -6.042945 -41.747249 4.220416 0.000000 0.000000 0.000000 34.566951 4.645884 1.005902 42.636434 11.575424 -2.328537 17.252282 35.989328 7.021826 0.000000 0.000000 0.000000 
-0.003373 0.910159 -0.006255 -2.824744 -10.989739 1.978904 18.212151 1.644423 -14.565547 -8.464477 2.785079 21.946770 20.188343 33.501908 16.974908 0.000000 0.000000 0.000000 -8.344412 1.190028 -17.960492 8.104872 -0.676879 24.761611 8.434940 1.481301 26.604435 0.000000 0.000000 0.000000 1.748707 -0.842941 29.326343 -4.321391 1.419365 -27.821144 -2.074833 6.053966 25.198193 14.178207 -5.724678 -30.523889 0.000000 0.000000 0.000000 -26.309056 -14.848949 7.752886 -37.450317 -12.735952 -2.614104 -5.914842 -41.860410 4.206934 0.000000 0.000000 0.000000 34.363611 4.603669 0.778198 43.271996 11.956282 -2.142148 17.424517 36.132689 7.100415 0.000000 0.000000 0.000000 
-0.001683 0.908489 -0.008582 -3.008764 -10.431330 2.365179 18.418659 1.788035 -16.222452 -7.971677 2.745718 23.889936 18.909056 32.043703 15.993032 0.000000 0.000000 0.000000 -8.487831 1.222425 -18.974027 8.332359 -0.779743 25.792287 8.771534 2.161120 26.581456 0.000000 0.000000 0.000000 1.410874 -0.799119 30.250451 -3.656054 1.282340 -28.034441 -2.148394 5.544321 24.969366 14.012151 -5.744915 -30.066668 0.000000 0.000000 0.000000 -26.536331 -15.020909 7.927209 -36.924972 -13.067446 -2.502371 -6.070625 -42.975482 4.397230 0.000000 0.000000 0.000000 34.721544 4.560546 0.647577 43.159807 11.633159 -2.203346 18.280999 36.357792 7.410253 0.000000 0.000000 0.000000 
-0.000233 0.905381 -0.010621 -3.068839 -9.050621 2.474016 18.447852 1.872650 -18.303680 -7.434236 2.639644 26.509326 17.433705 30.385287 14.574762 0.000000 0.000000 0.000000 -8.822070 1.174877 -19.831120 8.925215 -1.091620 27.343006 8.077314 1.607341 26.144635 0.000000 0.000000 0.000000 0.921040 -0.785054 31.151438 -3.089729 1.180135 -28.452942 -1.897293 5.260202 25.121310 13.370899 -5.429819 -29.619465 0.000000 0.000000 0.000000 -26.961333 -15.316527 7.971190 -36.252338 -13.541109 -2.323857 -6.577837 -44.485645 4.740656 0.000000 0.000000 0.000000 35.288605 4.496421 0.835350 42.406466 11.547183 -2.307862 18.375185 36.235044 7.434065 0.000000 0.000000 0.000000 
